<?xml version="1.0" encoding="UTF-8"?><svg id="Layer_1" xmlns="http://www.w3.org/2000/svg" viewBox="0 0 704.53 225.39"><defs><style>.cls-1{fill:#f88d2a;}.cls-2{fill:#fff;}</style></defs><g><path class="cls-1" d="M202.96,2.71H22.86C11.85,2.71,2.92,11.64,2.92,22.65V202.74c0,11.01,8.93,19.94,19.94,19.94H202.96c11.01,0,19.94-8.93,19.94-19.94V22.65c0-11.01-8.93-19.94-19.94-19.94"/><path class="cls-2" d="M70.04,67.84c8.04,0,14.78-6.31,14.78-14.57s-6.73-14.56-14.78-14.56-14.78,6.3-14.78,14.56,6.74,14.57,14.78,14.57"/><path class="cls-2" d="M39.39,145.84c-.87,3.7-1.3,7.69-1.3,10.94,0,12.83,6.96,21.34,21.74,21.34,8.35,0,15.62-3.37,21.67-9.24,2-1.93,5.27-.07,4.6,2.62l-.43,1.71c-.43,1.74,.88,3.42,2.67,3.42h18.68c1.26,0,2.36-.86,2.66-2.08l13.39-53.72c3.48-14.13,10.22-21.46,20.43-21.46,8.04,0,13.04,5,13.04,13.26,0,2.39-.22,5-1.09,7.82l-7.17,25.65c-1.09,3.7-1.52,7.39-1.52,10.87,0,12.18,7.17,21.09,22.17,21.09,12.28,0,29.85-19.45,36.27-38.47,.48-1.39-.24-2.92-1.62-3.45-1.33-.51-2.86,.07-3.46,1.38-5.79,12.46-21.17,24.46-24.24,24.46-3.26,0-5-2.17-5-6.52,0-1.96,.43-4.13,1.09-6.74l6.95-24.99c1.74-5.87,2.39-11.07,2.39-15.85,0-18.7-11.3-28.45-25-28.45-8.92,0-17.95,5.6-24.81,13.11-1.9,2.08-5.32,.31-4.71-2.44l1.19-5.44c.38-1.72-.93-3.34-2.69-3.34h-31.65c-1.25,0-2.33,.83-2.66,2.03l-3.73,13.75c-.47,1.75,.85,3.46,2.66,3.46h10.27c1.79,0,3.1,1.68,2.67,3.42l-9.79,39.2c-.05,.17-.1,.34-.18,.5-8.44,18.45-23.76,18.75-25.69,18.32-3.18-.72-5.22-1.93-5.22-6.06,0-2.39,.43-5.81,1.52-9.95l15.44-61.25c.44-1.74-.87-3.43-2.67-3.43H40.63c-1.24,0-2.33,.83-2.65,2.03l-3.73,13.75c-.47,1.75,.85,3.46,2.66,3.46h10.07c1.78,0,3.1,1.67,2.67,3.4l-10.25,41.89Z"/></g><g><path class="cls-2" d="M688.18,30.72c1.23,0,2.42,.16,3.57,.48,1.14,.32,2.21,.77,3.2,1.35,.99,.58,1.9,1.28,2.72,2.1,.82,.82,1.52,1.72,2.1,2.71,.58,.99,1.03,2.06,1.35,3.21,.32,1.14,.48,2.33,.48,3.57s-.16,2.41-.48,3.55-.77,2.21-1.35,3.2-1.28,1.89-2.1,2.71-1.72,1.52-2.72,2.1c-.99,.58-2.06,1.03-3.2,1.35-1.15,.32-2.33,.48-3.57,.48s-2.42-.16-3.56-.48c-1.14-.32-2.2-.77-3.19-1.35-.99-.58-1.89-1.28-2.71-2.1-.82-.82-1.52-1.72-2.1-2.71-.58-.99-1.03-2.05-1.35-3.19-.32-1.14-.48-2.32-.48-3.56s.16-2.43,.48-3.57c.32-1.14,.77-2.21,1.35-3.21,.58-.99,1.28-1.9,2.1-2.71,.82-.82,1.72-1.52,2.71-2.1,.99-.58,2.05-1.03,3.19-1.35,1.14-.32,2.32-.48,3.56-.48Zm0,24.67c1.03,0,2.02-.13,2.96-.4,.95-.27,1.83-.64,2.64-1.13,.82-.48,1.56-1.07,2.23-1.74,.67-.68,1.25-1.44,1.72-2.27,.47-.84,.84-1.73,1.1-2.69s.39-1.96,.39-3.02-.13-2.06-.39-3.03-.63-1.87-1.1-2.72c-.47-.84-1.04-1.6-1.72-2.29-.67-.68-1.42-1.27-2.23-1.76-.82-.49-1.7-.87-2.64-1.14-.94-.27-1.93-.4-2.96-.4s-2.01,.13-2.94,.4c-.93,.27-1.8,.64-2.62,1.14-.81,.49-1.55,1.08-2.21,1.76-.66,.68-1.22,1.45-1.7,2.29-.47,.84-.83,1.75-1.09,2.72s-.38,1.98-.38,3.03c0,1.57,.28,3.05,.84,4.41,.56,1.37,1.33,2.56,2.32,3.57,.98,1.01,2.14,1.81,3.47,2.39,1.33,.58,2.77,.87,4.3,.87Zm-.07-19.44c2.26,0,3.92,.41,4.98,1.22,1.05,.81,1.58,1.97,1.58,3.49,0,1.08-.28,2.02-.83,2.82-.56,.81-1.42,1.39-2.6,1.75,.27,.17,.49,.37,.68,.61s.37,.51,.54,.83l3.29,5.58h-3.72c-.55,0-.93-.2-1.15-.6l-2.62-4.78c-.12-.17-.26-.3-.41-.39-.15-.09-.38-.14-.68-.14h-1v5.9h-3.9v-16.29h5.85Zm-.34,7.61c.63,0,1.14-.05,1.53-.15s.7-.26,.93-.46c.22-.21,.38-.46,.46-.76,.08-.3,.13-.65,.13-1.03s-.04-.71-.11-.99-.21-.52-.41-.71c-.2-.19-.48-.33-.83-.42s-.8-.14-1.36-.14h-1.94v4.67h1.6Z"/><g><path class="cls-2" d="M303.36,117.68c4.67,0,8.74-.42,12.2-1.27,3.46-.85,6.76-2.01,9.89-3.5v-20.25h-13.94c-1.34,0-2.39-.37-3.16-1.12-.77-.74-1.16-1.66-1.16-2.73v-11.7h37.04v45.05c-2.82,2.05-5.76,3.84-8.82,5.35-3.05,1.52-6.31,2.76-9.78,3.73-3.46,.98-7.17,1.71-11.13,2.19-3.95,.49-8.21,.73-12.78,.73-8.11,0-15.58-1.41-22.41-4.23-6.83-2.82-12.73-6.75-17.71-11.78-4.98-5.03-8.87-11.04-11.67-18.02-2.8-6.98-4.2-14.6-4.2-22.87s1.36-16.04,4.08-23.02c2.72-6.98,6.58-12.99,11.59-18.02,5-5.03,11.08-8.93,18.21-11.7,7.13-2.77,15.14-4.16,24.02-4.16s16.95,1.35,23.6,4.04c6.65,2.7,12.28,6.2,16.9,10.51l-6.01,9.39c-1.18,1.9-2.75,2.85-4.7,2.85-1.23,0-2.49-.41-3.77-1.23-1.64-.97-3.32-1.95-5.04-2.93-1.72-.97-3.62-1.82-5.7-2.54-2.08-.72-4.42-1.31-7.01-1.77-2.59-.46-5.58-.69-8.97-.69-5.49,0-10.46,.92-14.9,2.77-4.44,1.85-8.23,4.49-11.36,7.93-3.13,3.44-5.54,7.57-7.24,12.4-1.69,4.83-2.54,10.22-2.54,16.17,0,6.42,.9,12.13,2.69,17.13s4.31,9.23,7.55,12.67c3.23,3.44,7.08,6.07,11.55,7.89,4.47,1.82,9.34,2.73,14.63,2.73Z"/><path class="cls-2" d="M362.5,132.92V53.92h11.17c1.95,0,3.31,.36,4.08,1.08,.77,.72,1.28,1.95,1.54,3.7l1.16,9.55c2.82-4.88,6.13-8.73,9.93-11.55,3.8-2.82,8.06-4.23,12.78-4.23,3.9,0,7.13,.9,9.7,2.69l-2.46,14.25c-.15,.92-.49,1.58-1,1.96-.51,.39-1.21,.58-2.08,.58-.77,0-1.82-.18-3.16-.54-1.34-.36-3.11-.54-5.31-.54-3.95,0-7.34,1.09-10.16,3.27-2.82,2.18-5.21,5.38-7.16,9.59v49.2h-19.02Z"/><path class="cls-2" d="M459.13,52.69c5.9,0,11.25,.95,16.05,2.85,4.8,1.9,8.89,4.59,12.28,8.08,3.39,3.49,6.01,7.75,7.85,12.78,1.85,5.03,2.77,10.65,2.77,16.86s-.92,11.91-2.77,16.94c-1.85,5.03-4.47,9.32-7.85,12.86-3.39,3.54-7.48,6.26-12.28,8.16-4.8,1.9-10.15,2.85-16.05,2.85s-11.27-.95-16.09-2.85c-4.83-1.9-8.95-4.62-12.36-8.16-3.41-3.54-6.06-7.83-7.93-12.86-1.88-5.03-2.81-10.68-2.81-16.94s.94-11.83,2.81-16.86c1.87-5.03,4.52-9.29,7.93-12.78,3.41-3.49,7.53-6.19,12.36-8.08,4.82-1.9,10.19-2.85,16.09-2.85Zm0,66.76c6.57,0,11.43-2.21,14.59-6.62,3.16-4.41,4.74-10.88,4.74-19.4s-1.58-15.02-4.74-19.48c-3.16-4.47-8.02-6.7-14.59-6.7s-11.6,2.25-14.78,6.74c-3.18,4.49-4.77,10.97-4.77,19.44s1.59,14.93,4.77,19.37c3.18,4.44,8.11,6.66,14.78,6.66Z"/><path class="cls-2" d="M530.35,53.92v50.2c0,4.83,1.12,8.56,3.35,11.2,2.23,2.64,5.58,3.97,10.05,3.97,3.28,0,6.36-.73,9.24-2.19,2.87-1.46,5.59-3.48,8.16-6.04V53.92h19.02v79h-11.63c-2.46,0-4.08-1.15-4.85-3.46l-1.31-6.31c-1.64,1.64-3.34,3.15-5.08,4.5-1.75,1.36-3.61,2.52-5.58,3.46-1.98,.95-4.11,1.69-6.39,2.23-2.29,.54-4.74,.81-7.35,.81-4.31,0-8.12-.73-11.43-2.19-3.31-1.46-6.1-3.53-8.35-6.2-2.26-2.67-3.97-5.84-5.12-9.51-1.16-3.67-1.73-7.71-1.73-12.13V53.92h19.02Z"/><path class="cls-2" d="M600.5,158.72V53.92h11.63c1.23,0,2.28,.28,3.16,.85,.87,.57,1.44,1.44,1.69,2.62l1.54,7.31c3.18-3.64,6.84-6.6,10.97-8.85,4.13-2.26,8.97-3.39,14.51-3.39,4.31,0,8.25,.9,11.82,2.69,3.57,1.8,6.65,4.4,9.24,7.82,2.59,3.41,4.59,7.62,6.01,12.63,1.41,5.01,2.12,10.74,2.12,17.21,0,5.9-.8,11.37-2.39,16.4-1.59,5.03-3.86,9.39-6.81,13.09-2.95,3.7-6.52,6.58-10.7,8.66-4.18,2.08-8.87,3.12-14.05,3.12-4.47,0-8.25-.68-11.36-2.04-3.11-1.36-5.89-3.25-8.35-5.66v32.34h-19.02Zm36.96-91.25c-3.95,0-7.33,.83-10.13,2.5-2.8,1.67-5.4,4.02-7.82,7.05v35.42c2.16,2.67,4.5,4.53,7.05,5.58,2.54,1.05,5.27,1.58,8.2,1.58s5.48-.54,7.82-1.62,4.31-2.72,5.93-4.93c1.62-2.21,2.86-4.99,3.73-8.35,.87-3.36,1.31-7.33,1.31-11.9s-.37-8.53-1.12-11.74c-.75-3.21-1.81-5.81-3.2-7.82-1.39-2-3.07-3.47-5.04-4.39-1.98-.92-4.22-1.39-6.74-1.39Z"/></g><g><path class="cls-2" d="M256.06,204.46h-6.62v-35.43h6.62v35.43Z"/><path class="cls-2" d="M271.25,169.07c.2,.02,.37,.07,.53,.15,.16,.07,.31,.18,.45,.32,.15,.14,.31,.32,.49,.55l18.6,23.69c-.07-.57-.11-1.13-.13-1.68-.02-.55-.04-1.06-.04-1.53v-21.54h5.81v35.43h-3.41c-.52,0-.96-.08-1.3-.25-.34-.16-.68-.46-1-.88l-18.52-23.59c.05,.52,.09,1.04,.11,1.56,.02,.51,.04,.98,.04,1.41v21.76h-5.81v-35.43h3.45c.29,0,.54,.01,.74,.04Z"/><path class="cls-2" d="M332.11,169.03v5.41h-10.66v30.01h-6.59v-30.01h-10.71v-5.41h27.96Z"/><path class="cls-2" d="M361.68,169.03v5.24h-15.7v9.82h12.37v5.07h-12.37v10.02h15.7v5.27h-22.34v-35.43h22.34Z"/><path class="cls-2" d="M377.23,190.62v13.84h-6.59v-35.43h10.8c2.42,0,4.49,.25,6.21,.75,1.72,.5,3.14,1.2,4.24,2.09,1.1,.9,1.91,1.97,2.43,3.22s.77,2.63,.77,4.13c0,1.19-.17,2.32-.53,3.38-.35,1.06-.86,2.03-1.52,2.89-.66,.87-1.48,1.63-2.45,2.28-.97,.65-2.08,1.18-3.32,1.57,.83,.47,1.55,1.15,2.16,2.03l8.87,13.08h-5.93c-.57,0-1.06-.11-1.46-.34-.4-.23-.74-.56-1.02-.98l-7.45-11.34c-.28-.42-.58-.73-.92-.91-.33-.18-.83-.27-1.48-.27h-2.82Zm0-4.73h4.12c1.24,0,2.32-.16,3.25-.47,.92-.31,1.68-.74,2.28-1.29,.6-.55,1.04-1.2,1.34-1.95,.29-.75,.44-1.58,.44-2.47,0-1.8-.59-3.18-1.78-4.14-1.18-.96-2.99-1.45-5.43-1.45h-4.21v11.76Z"/><path class="cls-2" d="M409.75,169.07c.2,.02,.37,.07,.53,.15,.16,.07,.31,.18,.45,.32,.15,.14,.31,.32,.49,.55l18.6,23.69c-.07-.57-.11-1.13-.13-1.68-.02-.55-.04-1.06-.04-1.53v-21.54h5.81v35.43h-3.41c-.52,0-.96-.08-1.3-.25-.34-.16-.68-.46-1-.88l-18.52-23.59c.05,.52,.09,1.04,.11,1.56,.02,.51,.04,.98,.04,1.41v21.76h-5.81v-35.43h3.45c.29,0,.54,.01,.74,.04Z"/><path class="cls-2" d="M476.78,204.46h-5.1c-.57,0-1.04-.14-1.41-.43-.37-.29-.63-.64-.8-1.07l-2.65-7.23h-14.68l-2.65,7.23c-.13,.38-.39,.72-.77,1.03s-.85,.47-1.41,.47h-5.12l13.92-35.43h6.74l13.92,35.43Zm-22.93-13.38h11.29l-4.31-11.78c-.2-.52-.41-1.14-.65-1.85-.24-.71-.47-1.48-.7-2.32-.23,.83-.45,1.61-.67,2.33-.22,.72-.44,1.35-.65,1.89l-4.31,11.74Z"/><path class="cls-2" d="M504.83,169.03v5.41h-10.66v30.01h-6.59v-30.01h-10.71v-5.41h27.96Z"/><path class="cls-2" d="M519.48,204.46h-6.62v-35.43h6.62v35.43Z"/><path class="cls-2" d="M564.46,186.75c0,2.6-.43,5-1.3,7.22-.87,2.21-2.08,4.13-3.65,5.75-1.57,1.62-3.45,2.88-5.66,3.79-2.21,.91-4.65,1.36-7.33,1.36s-5.12-.45-7.34-1.36c-2.21-.91-4.11-2.17-5.68-3.79-1.58-1.62-2.8-3.53-3.66-5.75-.87-2.21-1.3-4.62-1.3-7.22s.43-5,1.3-7.22c.87-2.21,2.09-4.13,3.66-5.75,1.58-1.62,3.47-2.88,5.68-3.79,2.21-.91,4.66-1.36,7.34-1.36s5.12,.46,7.33,1.37,4.09,2.18,5.66,3.79,2.79,3.52,3.65,5.73c.87,2.21,1.3,4.62,1.3,7.22Zm-6.76,0c0-1.94-.26-3.69-.77-5.23s-1.25-2.85-2.22-3.93-2.14-1.9-3.52-2.47c-1.38-.57-2.94-.86-4.67-.86s-3.29,.29-4.68,.86c-1.39,.57-2.57,1.4-3.54,2.47s-1.72,2.39-2.24,3.93c-.52,1.54-.78,3.29-.78,5.23s.26,3.69,.78,5.23c.52,1.54,1.27,2.85,2.24,3.92,.97,1.07,2.15,1.89,3.54,2.46,1.39,.57,2.95,.86,4.68,.86s3.29-.29,4.67-.86c1.38-.57,2.55-1.39,3.52-2.46,.96-1.07,1.7-2.38,2.22-3.92s.77-3.29,.77-5.23Z"/><path class="cls-2" d="M576.89,169.07c.2,.02,.37,.07,.53,.15,.16,.07,.31,.18,.45,.32,.15,.14,.31,.32,.49,.55l18.6,23.69c-.07-.57-.11-1.13-.13-1.68-.02-.55-.04-1.06-.04-1.53v-21.54h5.81v35.43h-3.41c-.52,0-.96-.08-1.3-.25-.34-.16-.68-.46-1-.88l-18.52-23.59c.05,.52,.09,1.04,.11,1.56,.02,.51,.04,.98,.04,1.41v21.76h-5.81v-35.43h3.45c.29,0,.54,.01,.74,.04Z"/><path class="cls-2" d="M643.92,204.46h-5.1c-.57,0-1.04-.14-1.41-.43-.37-.29-.63-.64-.8-1.07l-2.65-7.23h-14.68l-2.65,7.23c-.13,.38-.39,.72-.77,1.03s-.85,.47-1.41,.47h-5.12l13.92-35.43h6.74l13.92,35.43Zm-22.93-13.38h11.29l-4.31-11.78c-.2-.52-.41-1.14-.65-1.85-.24-.71-.47-1.48-.7-2.32-.23,.83-.45,1.61-.67,2.33-.22,.72-.44,1.35-.65,1.89l-4.31,11.74Z"/><path class="cls-2" d="M657.2,199.02h14.18v5.44h-20.78v-35.43h6.59v29.99Z"/></g></g></svg>